<svg xmlns="http://www.w3.org/2000/svg" width="71" height="71" fill="none" viewBox="0 0 71 71"><path fill="url(#a)" d="m35.927 35.128-5.128-12.38 2.364-.978L27.4.982l-9.337 5.55 9.492 17.56 2.365-.978 5.127 12.379z"/><path fill="url(#b)" d="m35.4 35.102-12.38-5.128.98-2.364L5.225 16.986 2.547 27.514l19.13 5.704.979-2.365 12.379 5.128z"/><path fill="url(#c)" d="m35.008 35.456-12.38 5.128-.979-2.365L.863 43.983l5.55 9.337 17.56-9.493-.979-2.364 12.38-5.129z"/><path fill="url(#d)" d="m34.982 35.982-5.128 12.38-2.364-.98-10.623 18.775 10.527 2.678 5.705-19.13-2.365-.98 5.127-12.38z"/><path fill="url(#e)" d="m35.336 36.373 5.128 12.379-2.365.98 5.763 20.788 9.338-5.55-9.493-17.562-2.365.98-5.128-12.378z"/><path fill="url(#f)" d="m35.862 36.4 12.38 5.126-.98 2.365 18.775 10.624 2.678-10.528-19.13-5.704-.979 2.365-12.379-5.128z"/><path fill="url(#g)" d="m36.254 36.045 12.38-5.127.979 2.365L70.4 27.518l-5.55-9.337-17.56 9.493.979 2.364-12.38 5.128z"/><path fill="url(#h)" d="m36.28 35.519 5.128-12.38 2.365.981L54.395 5.344 43.869 2.667l-5.706 19.13 2.365.979-5.127 12.38z"/><path fill="url(#i)" d="M34.068 36.398a1.692 1.692 0 0 0 3.125-1.294 1.692 1.692 0 0 0-3.125 1.294"/><path fill="url(#j)" d="M40.237 46.87c-6.132 2.54-13.186-.382-15.725-6.513-2.54-6.131.382-13.186 6.513-15.725 6.132-2.54 13.186.382 15.725 6.514 2.54 6.13-.382 13.185-6.513 15.724M31.47 25.706c-5.539 2.294-8.179 8.667-5.885 14.206 2.295 5.54 8.668 8.18 14.207 5.885s8.179-8.667 5.884-14.207-8.667-8.179-14.206-5.884"/><defs><linearGradient id="a" x1="-18.2598" x2="85.3129" y1="-0.452187" y2="38.6657" gradientUnits="userSpaceOnUse"><stop stop-color="#B18655"/><stop offset="0.126" stop-color="#9D764C"/><stop offset="0.3417" stop-color="#82603F"/><stop offset="0.5594" stop-color="#6E5135"/><stop offset="0.7782" stop-color="#624730"/><stop offset="1" stop-color="#5E442E"/></linearGradient><linearGradient id="b" x1="-28.0762" x2="72.8238" y1="48.2576" y2="2.68187" gradientUnits="userSpaceOnUse"><stop stop-color="#B18655"/><stop offset="0.126" stop-color="#9D764C"/><stop offset="0.3417" stop-color="#82603F"/><stop offset="0.5594" stop-color="#6E5135"/><stop offset="0.7782" stop-color="#624730"/><stop offset="1" stop-color="#5E442E"/></linearGradient><linearGradient id="c" x1="-0.571825" x2="38.5465" y1="89.6418" y2="-13.9311" gradientUnits="userSpaceOnUse"><stop stop-color="#B18655"/><stop offset="0.126" stop-color="#9D764C"/><stop offset="0.3417" stop-color="#82603F"/><stop offset="0.5594" stop-color="#6E5135"/><stop offset="0.7782" stop-color="#624730"/><stop offset="1" stop-color="#5E442E"/></linearGradient><linearGradient id="d" x1="48.1384" x2="2.56307" y1="99.4573" y2="-1.44247" gradientUnits="userSpaceOnUse"><stop stop-color="#B18655"/><stop offset="0.126" stop-color="#9D764C"/><stop offset="0.3417" stop-color="#82603F"/><stop offset="0.5594" stop-color="#6E5135"/><stop offset="0.7782" stop-color="#624730"/><stop offset="1" stop-color="#5E442E"/></linearGradient><linearGradient id="e" x1="89.5223" x2="-14.0504" y1="71.9532" y2="32.8354" gradientUnits="userSpaceOnUse"><stop stop-color="#B18655"/><stop offset="0.126" stop-color="#9D764C"/><stop offset="0.3417" stop-color="#82603F"/><stop offset="0.5594" stop-color="#6E5135"/><stop offset="0.7782" stop-color="#624730"/><stop offset="1" stop-color="#5E442E"/></linearGradient><linearGradient id="f" x1="99.338" x2="-1.5617" y1="23.2434" y2="68.819" gradientUnits="userSpaceOnUse"><stop stop-color="#B18655"/><stop offset="0.126" stop-color="#9D764C"/><stop offset="0.3417" stop-color="#82603F"/><stop offset="0.5594" stop-color="#6E5135"/><stop offset="0.7782" stop-color="#624730"/><stop offset="1" stop-color="#5E442E"/></linearGradient><linearGradient id="g" x1="71.834" x2="32.7158" y1="-18.1406" y2="85.4322" gradientUnits="userSpaceOnUse"><stop stop-color="#B18655"/><stop offset="0.126" stop-color="#9D764C"/><stop offset="0.3417" stop-color="#82603F"/><stop offset="0.5594" stop-color="#6E5135"/><stop offset="0.7782" stop-color="#624730"/><stop offset="1" stop-color="#5E442E"/></linearGradient><linearGradient id="h" x1="23.124" x2="68.6994" y1="-27.9562" y2="72.9435" gradientUnits="userSpaceOnUse"><stop stop-color="#B18655"/><stop offset="0.126" stop-color="#9D764C"/><stop offset="0.3417" stop-color="#82603F"/><stop offset="0.5594" stop-color="#6E5135"/><stop offset="0.7782" stop-color="#624730"/><stop offset="1" stop-color="#5E442E"/></linearGradient><linearGradient id="i" x1="-24.6892" x2="80.9673" y1="12.9679" y2="52.872" gradientUnits="userSpaceOnUse"><stop stop-color="#B18655"/><stop offset="0.126" stop-color="#9D764C"/><stop offset="0.3417" stop-color="#82603F"/><stop offset="0.5594" stop-color="#6E5135"/><stop offset="0.7782" stop-color="#624730"/><stop offset="1" stop-color="#5E442E"/></linearGradient><linearGradient id="j" x1="24.377" x2="46.885" y1="31.5001" y2="40.0011" gradientUnits="userSpaceOnUse"><stop stop-color="#B18655"/><stop offset="0.126" stop-color="#9D764C"/><stop offset="0.3417" stop-color="#82603F"/><stop offset="0.5594" stop-color="#6E5135"/><stop offset="0.7782" stop-color="#624730"/><stop offset="1" stop-color="#5E442E"/></linearGradient></defs></svg>