<svg aria-hidden="true" style="position: absolute; width: 0; height: 0; overflow: hidden;" version="1.1" xmlns="http://www.w3.org/2000/svg" xmlns:xlink="http://www.w3.org/1999/xlink">
<defs>
<symbol id="icon-right" viewBox="0 0 64 32">
<path d="M61.656 10.663l-10.32-9.913c-0.248-0.238-0.543-0.426-0.868-0.555s-0.674-0.195-1.026-0.195-0.701 0.066-1.026 0.195c-0.325 0.129-0.62 0.317-0.868 0.555-0.497 0.475-0.775 1.118-0.775 1.787s0.279 1.312 0.775 1.787l9.493 9.102h-54.373c-0.707 0-1.386 0.267-1.886 0.743s-0.781 1.12-0.781 1.793c0 0.672 0.281 1.317 0.781 1.793s1.178 0.743 1.886 0.743h54.533l-9.653 9.153c-0.25 0.236-0.448 0.516-0.584 0.825s-0.205 0.64-0.205 0.975c0 0.335 0.070 0.666 0.205 0.975s0.334 0.589 0.584 0.825c0.248 0.238 0.543 0.426 0.868 0.555s0.674 0.195 1.026 0.195c0.352 0 0.701-0.066 1.026-0.195s0.62-0.317 0.868-0.555l10.32-9.837c1.498-1.426 2.339-3.359 2.339-5.375s-0.841-3.949-2.339-5.375z"></path>
</symbol>
<symbol id="icon-left" viewBox="0 0 64 32">
<path d="M2.342 21.311l10.32 9.937c0.248 0.238 0.543 0.427 0.868 0.556s0.674 0.195 1.026 0.195c0.352 0 0.701-0.066 1.026-0.195s0.62-0.318 0.868-0.556c0.25-0.236 0.448-0.517 0.584-0.827s0.205-0.642 0.205-0.977c0-0.336-0.070-0.668-0.205-0.978s-0.334-0.591-0.584-0.827l-9.493-9.098h54.373c0.707 0 1.386-0.268 1.886-0.744s0.781-1.123 0.781-1.797-0.281-1.32-0.781-1.797c-0.5-0.477-1.178-0.744-1.886-0.744h-54.533l9.653-9.2c0.473-0.473 0.736-1.101 0.736-1.754s-0.264-1.281-0.736-1.754c-0.248-0.238-0.543-0.427-0.868-0.556s-0.674-0.195-1.026-0.195c-0.352 0-0.701 0.066-1.026 0.195s-0.62 0.318-0.868 0.556l-10.32 9.784c-1.498 1.43-2.34 3.367-2.34 5.388s0.842 3.958 2.34 5.388z"></path>
</symbol>
<symbol id="icon-plus" viewBox="0 0 30 32">
<path d="M28.863 14.044h-12.549v-12.549c0-0.333-0.132-0.652-0.368-0.887s-0.555-0.368-0.887-0.368c-0.333 0-0.652 0.132-0.887 0.368s-0.368 0.555-0.368 0.887v12.549h-12.549c-0.333 0-0.652 0.132-0.887 0.368s-0.368 0.555-0.368 0.887c0 0.333 0.132 0.652 0.368 0.887s0.555 0.368 0.887 0.368h12.549v12.549c0 0.333 0.132 0.652 0.368 0.887s0.555 0.367 0.887 0.367c0.333 0 0.652-0.132 0.887-0.367s0.368-0.555 0.368-0.887v-12.549h12.549c0.333 0 0.652-0.132 0.887-0.368s0.368-0.555 0.368-0.887-0.132-0.652-0.368-0.887c-0.235-0.235-0.555-0.368-0.887-0.368z"></path>
</symbol>
<symbol id="icon-close" viewBox="0 0 32 32">
<path d="M29.612 27.604l-11.604-11.604 11.604-11.604c0.308-0.308 0.481-0.725 0.481-1.16s-0.173-0.853-0.481-1.16c-0.308-0.308-0.725-0.481-1.16-0.481s-0.853 0.173-1.16 0.481l-11.604 11.604-11.604-11.604c-0.308-0.308-0.725-0.481-1.16-0.481s-0.853 0.173-1.16 0.481c-0.308 0.308-0.481 0.725-0.481 1.16s0.173 0.853 0.481 1.16l11.604 11.604-11.604 11.604c-0.308 0.308-0.481 0.725-0.481 1.16s0.173 0.853 0.481 1.16c0.308 0.308 0.725 0.481 1.16 0.481s0.853-0.173 1.16-0.481l11.604-11.604 11.604 11.604c0.308 0.308 0.725 0.481 1.16 0.481s0.853-0.173 1.16-0.481c0.308-0.308 0.481-0.725 0.481-1.16s-0.173-0.852-0.481-1.16z"></path>
</symbol>
<symbol id="icon-icon5" viewBox="0 0 32 32">
<path d="M16 2.666c1.769 0.006 3.519 0.362 5.149 1.049s3.108 1.69 4.347 2.951h-4.163c-0.354 0-0.693 0.14-0.943 0.391s-0.391 0.589-0.391 0.943c0 0.354 0.141 0.693 0.391 0.943s0.589 0.391 0.943 0.391h5.524c0.657-0 1.286-0.261 1.75-0.726s0.725-1.094 0.726-1.75v-5.524c0-0.354-0.141-0.693-0.391-0.943s-0.589-0.391-0.943-0.391c-0.354 0-0.693 0.14-0.943 0.391s-0.391 0.589-0.391 0.943v2.771c-2.204-1.985-4.917-3.317-7.835-3.847s-5.926-0.238-8.687 0.845c-2.761 1.083-5.166 2.912-6.946 5.285s-2.865 5.193-3.132 8.147c-0.017 0.186 0.004 0.373 0.064 0.55s0.154 0.339 0.28 0.477c0.125 0.138 0.278 0.248 0.449 0.324s0.355 0.115 0.541 0.115c0.326 0.004 0.642-0.114 0.886-0.33s0.398-0.516 0.433-0.841c0.297-3.319 1.824-6.407 4.281-8.658s5.668-3.501 9-3.505z"></path>
<path d="M30.601 16c-0.326-0.004-0.642 0.113-0.886 0.33s-0.398 0.516-0.433 0.841c-0.22 2.538-1.164 4.959-2.719 6.976s-3.656 3.547-6.054 4.406c-2.398 0.859-4.992 1.013-7.474 0.442s-4.749-1.841-6.531-3.661h4.163c0.354 0 0.693-0.141 0.943-0.391s0.391-0.589 0.391-0.943c0-0.354-0.14-0.693-0.391-0.943s-0.589-0.391-0.943-0.391h-5.524c-0.325-0-0.647 0.064-0.948 0.188s-0.574 0.307-0.803 0.537-0.412 0.503-0.537 0.803c-0.124 0.3-0.188 0.623-0.188 0.948v5.524c0 0.354 0.14 0.693 0.391 0.943s0.589 0.391 0.943 0.391c0.354 0 0.693-0.141 0.943-0.391s0.391-0.589 0.391-0.943v-2.771c2.204 1.985 4.917 3.317 7.835 3.847s5.926 0.238 8.687-0.845c2.761-1.083 5.166-2.912 6.946-5.285s2.865-5.193 3.132-8.147c0.017-0.186-0.004-0.373-0.064-0.55s-0.154-0.339-0.28-0.477-0.278-0.248-0.449-0.324c-0.17-0.076-0.353-0.115-0.54-0.115z"></path>
</symbol>
<symbol id="icon-icon4" viewBox="0 0 32 32">
<path d="M24 8c-3.963 0-6.591 2.969-8 5.176-1.409-2.207-4.037-5.176-8-5.176-2.122 0-4.157 0.843-5.657 2.343s-2.343 3.535-2.343 5.657c0 2.122 0.843 4.157 2.343 5.657s3.535 2.343 5.657 2.343c3.963 0 6.591-2.969 8-5.176 1.409 2.207 4.037 5.176 8 5.176 2.122 0 4.157-0.843 5.657-2.343s2.343-3.535 2.343-5.657-0.843-4.157-2.343-5.657c-1.5-1.5-3.535-2.343-5.657-2.343zM8 21.333c-1.415 0-2.771-0.562-3.771-1.562s-1.562-2.357-1.562-3.771 0.562-2.771 1.562-3.771c1-1 2.357-1.562 3.771-1.562 3.591 0 5.843 3.927 6.533 5.333-0.685 1.413-2.923 5.333-6.533 5.333zM24 21.333c-3.591 0-5.843-3.927-6.533-5.333 0.687-1.411 2.924-5.333 6.533-5.333 1.415 0 2.771 0.562 3.771 1.562s1.562 2.357 1.562 3.771-0.562 2.771-1.562 3.771c-1 1-2.357 1.562-3.771 1.562z"></path>
</symbol>
<symbol id="icon-icon3" viewBox="0 0 32 32">
<path d="M19.999 32c-2.335 0.002-4.641-0.508-6.758-1.492s-3.993-2.42-5.496-4.207-2.597-3.88-3.205-6.134c-0.608-2.254-0.715-4.614-0.315-6.914s1.3-4.484 2.634-6.4 3.072-3.516 5.091-4.689c2.019-1.173 4.269-1.889 6.595-2.1s4.668 0.090 6.865 0.881c0.658 0.236 1.24 0.644 1.687 1.182s0.74 1.185 0.851 1.875c0.111 0.69 0.035 1.397-0.221 2.048s-0.681 1.221-1.232 1.651c-6.8 5.227-6.784 11.385 0 16.595 0.551 0.43 0.976 1.001 1.231 1.651s0.331 1.358 0.22 2.048c-0.111 0.69-0.405 1.338-0.852 1.875s-1.029 0.946-1.687 1.181c-1.736 0.62-3.565 0.94-5.408 0.947zM19.999 4c-1.744-0.002-3.468 0.376-5.051 1.109s-2.988 1.801-4.116 3.131-1.952 2.891-2.416 4.573c-0.463 1.682-0.554 3.444-0.267 5.165s0.946 3.358 1.931 4.797 2.272 2.647 3.771 3.539c1.499 0.892 3.175 1.446 4.91 1.624s3.488-0.025 5.137-0.593c-8.681-6.753-8.652-15.959 0-22.688-1.257-0.425-2.573-0.647-3.9-0.656z"></path>
</symbol>
<symbol id="icon-icon2" viewBox="0 0 32 32">
<path d="M23.992 3.048c-2.545-2.275-5.969-3.355-9.384-2.969-5.401 0.611-9.82 4.964-10.508 10.351-0.499 3.909 0.859 7.68 3.723 10.347 1.835 1.705 2.844 3.869 2.844 6.091v0.387c0 2.661 2.049 4.747 4.667 4.747h1.333c2.573 0 4.667-2.093 4.667-4.667v-0.985c0-1.981 0.916-3.875 2.577-5.331 2.599-2.279 4.089-5.565 4.089-9.017 0-3.413-1.461-6.676-4.008-8.952zM16.667 29.333h-1.333c-1.121 0-2-0.913-2-2.080v-0.387c0-0.067-0.009-0.133-0.011-0.2h5.344v0.667c0 1.103-0.897 2-2 2zM22.152 19.012c-1.569 1.375-2.652 3.12-3.157 4.988h-6.091c-0.561-1.907-1.664-3.687-3.264-5.175-2.228-2.075-3.284-5.011-2.895-8.057 0.533-4.183 3.967-7.564 8.161-8.039 0.371-0.041 0.739-0.063 1.104-0.063 2.3 0 4.471 0.823 6.203 2.371 1.981 1.771 3.119 4.308 3.119 6.963 0 2.684-1.157 5.24-3.18 7.012zM21.333 10v1.161c-0.797-0.183-1.824-0.361-2.133-0.361-1.031 0-1.867 0.836-1.867 1.867s0.836 1.867 1.867 1.867c0.309 0 1.336-0.179 2.133-0.361v1.161c0 1.104-0.896 2-2 2h-5.333c-1.104 0-2-0.896-2-2v-0.868c-0.535 0.127-1.023 0.201-1.333 0.201-1.104 0-2-0.896-2-2s0.896-2 2-2c0.311 0 0.799 0.075 1.333 0.201v-0.868c0-1.104 0.896-2 2-2h0.895c-0.121-0.521-0.193-0.995-0.193-1.299 0-1.104 0.896-2 2-2s2 0.896 2 2c0 0.304-0.072 0.777-0.195 1.299h0.827c1.104 0 2 0.896 2 2z"></path>
</symbol>
<symbol id="icon-icon1" viewBox="0 0 32 32">
<path d="M26 32c-0.267 0-0.527-0.079-0.748-0.229s-0.392-0.361-0.491-0.609l-1.125-2.817-2.821-1.188c-0.242-0.107-0.447-0.283-0.589-0.506s-0.216-0.483-0.211-0.748c0.005-0.265 0.088-0.522 0.239-0.739s0.362-0.386 0.608-0.483l2.784-1.055 1.116-2.789c0.103-0.244 0.275-0.452 0.495-0.598s0.479-0.224 0.743-0.224c0.264 0 0.523 0.078 0.743 0.224s0.393 0.354 0.495 0.598l1.121 2.8 2.8 1.121c0.244 0.102 0.453 0.274 0.599 0.495s0.225 0.479 0.225 0.744-0.078 0.524-0.225 0.744c-0.147 0.22-0.355 0.393-0.599 0.495l-2.8 1.121-1.121 2.8c-0.098 0.248-0.269 0.461-0.49 0.612s-0.482 0.231-0.749 0.231zM13.333 28c-0.576 0.007-1.139-0.173-1.604-0.513s-0.808-0.821-0.977-1.371l-2.152-6.729-6.751-2.259c-0.545-0.182-1.018-0.533-1.35-1.001s-0.508-1.031-0.5-1.605 0.198-1.131 0.543-1.591c0.345-0.459 0.827-0.797 1.377-0.964l6.697-2.045 2.256-6.739c0.168-0.554 0.515-1.036 0.986-1.37s1.041-0.503 1.619-0.479c0.576 0.001 1.137 0.188 1.597 0.534s0.797 0.832 0.959 1.385l2.043 6.687 6.707 2.147c0.541 0.181 1.011 0.528 1.344 0.991s0.512 1.019 0.512 1.59-0.179 1.127-0.512 1.59c-0.333 0.463-0.803 0.81-1.344 0.991l-6.719 2.149-2.149 6.719c-0.169 0.551-0.512 1.032-0.977 1.371s-1.028 0.519-1.604 0.513zM13.483 4.031l-2.549 7.388c-0.067 0.202-0.182 0.384-0.334 0.533s-0.338 0.258-0.541 0.321l-7.361 2.245 7.388 2.556c0.199 0.066 0.379 0.178 0.526 0.327s0.258 0.331 0.322 0.53l2.36 7.373 2.44-7.373c0.065-0.202 0.177-0.387 0.327-0.537s0.334-0.263 0.537-0.327l7.373-2.359c0.009-0.003 0.018-0.007 0.027-0.012l-7.4-2.429c-0.205-0.066-0.392-0.18-0.543-0.334s-0.263-0.341-0.326-0.548l-2.245-7.355zM27.333 9.333c-0.297 0-0.586-0.099-0.82-0.282s-0.401-0.439-0.473-0.727l-0.476-1.907-1.911-0.513c-0.287-0.077-0.54-0.248-0.719-0.486s-0.273-0.528-0.268-0.825 0.11-0.584 0.297-0.816c0.187-0.231 0.446-0.393 0.736-0.46l1.867-0.433 0.475-1.875c0.072-0.288 0.239-0.544 0.473-0.727s0.523-0.282 0.82-0.282 0.586 0.099 0.82 0.282c0.234 0.183 0.401 0.439 0.473 0.727l0.472 1.891 1.891 0.473c0.288 0.072 0.544 0.239 0.727 0.473s0.282 0.523 0.282 0.82-0.099 0.586-0.282 0.82c-0.183 0.234-0.439 0.401-0.727 0.473l-1.891 0.473-0.472 1.891c-0.072 0.288-0.239 0.544-0.473 0.727s-0.523 0.282-0.82 0.282z"></path>
</symbol>
<symbol id="icon-play" viewBox="0 0 29 32">
<path d="M0.677 1.047c-0.357 0.369-0.563 0.944-0.563 1.688v26.538c0 0.744 0.207 1.319 0.563 1.688l0.088 0.081 15.055-14.865v-0.351l-15.055-14.865-0.088 0.087z"></path>
<path d="M20.832 21.133l-5.013-4.957v-0.351l5.019-4.957 0.112 0.065 5.944 3.341c1.696 0.948 1.696 2.508 0 3.462l-6.062 3.399z"></path>
<path d="M20.951 21.069l-5.131-5.069-15.143 14.959c0.563 0.585 1.482 0.655 2.527 0.070l17.747-9.961z"></path>
<path d="M20.951 10.931l-17.747-9.961c-1.045-0.579-1.963-0.508-2.527 0.077l15.143 14.954 5.131-5.069z"></path>
</symbol>
<symbol id="icon-google" viewBox="0 0 158 32">
<path d="M51.46 9.3c-4.348 0-7.9 3.269-7.9 7.778 0 4.473 3.552 7.776 7.9 7.776 4.357 0 7.909-3.303 7.909-7.776 0-4.51-3.552-7.778-7.909-7.778zM51.46 21.791c-2.386 0-4.438-1.945-4.438-4.713 0-2.805 2.052-4.715 4.438-4.715s4.447 1.911 4.447 4.715c0 2.768-2.062 4.713-4.447 4.713zM34.224 9.3c-4.357 0-7.9 3.269-7.9 7.778 0 4.473 3.543 7.776 7.9 7.776 4.355 0 7.9-3.303 7.9-7.776 0-4.51-3.545-7.778-7.9-7.778zM34.224 21.791c-2.388 0-4.447-1.945-4.447-4.713 0-2.805 2.059-4.715 4.447-4.715 2.386 0 4.438 1.911 4.438 4.715 0 2.768-2.052 4.713-4.438 4.713zM13.713 11.684v3.305h7.99c-0.234 1.847-0.858 3.204-1.816 4.151-1.166 1.143-2.983 2.411-6.174 2.411-4.917 0-8.768-3.92-8.768-8.777s3.85-8.777 8.768-8.777c2.659 0 4.593 1.026 6.021 2.357l2.358-2.329c-1.997-1.883-4.653-3.33-8.379-3.33-6.743 0-12.41 5.419-12.41 12.080s5.667 12.080 12.41 12.080c3.644 0 6.382-1.179 8.534-3.392 2.205-2.178 2.892-5.241 2.892-7.714 0-0.768-0.065-1.474-0.18-2.064h-11.246zM97.584 14.246c-0.65-1.739-2.656-4.946-6.743-4.946-4.049 0-7.421 3.152-7.421 7.778 0 4.357 3.337 7.776 7.81 7.776 3.617 0 5.704-2.178 6.562-3.447l-2.684-1.767c-0.896 1.294-2.115 2.151-3.878 2.151-1.752 0-3.008-0.793-3.813-2.357l10.531-4.304-0.363-0.885zM86.847 16.836c-0.090-2.999 2.358-4.535 4.112-4.535 1.374 0 2.541 0.679 2.929 1.65l-7.041 2.884zM78.288 24.381h3.462v-22.857h-3.462v22.857zM72.619 11.032h-0.116c-0.778-0.91-2.261-1.733-4.14-1.733-3.943 0-7.548 3.419-7.548 7.803 0 4.359 3.605 7.751 7.548 7.751 1.879 0 3.362-0.83 4.14-1.767h0.116v1.115c0 2.974-1.608 4.571-4.202 4.571-2.115 0-3.427-1.509-3.968-2.777l-3.010 1.241c0.868 2.062 3.165 4.599 6.979 4.599 4.058 0 7.483-2.359 7.483-8.098v-13.966h-3.281v1.259zM68.66 21.791c-2.386 0-4.383-1.973-4.383-4.688 0-2.741 1.997-4.741 4.383-4.741 2.351 0 4.204 2 4.204 4.741 0 2.715-1.854 4.688-4.204 4.688zM113.791 1.524h-8.279v22.857h3.453v-8.661h4.827c3.834 0 7.594-2.74 7.594-7.099 0-4.357-3.769-7.097-7.594-7.097zM113.881 12.541h-4.917v-7.838h4.917c2.578 0 4.049 2.114 4.049 3.918 0 1.769-1.472 3.92-4.049 3.92zM135.222 9.256c-2.494 0-5.088 1.088-6.155 3.499l3.064 1.269c0.659-1.269 1.872-1.68 3.154-1.68 1.791 0 3.607 1.063 3.635 2.939v0.24c-0.625-0.357-1.962-0.884-3.607-0.884-3.3 0-6.662 1.794-6.662 5.143 0 3.063 2.703 5.035 5.741 5.035 2.323 0 3.605-1.035 4.41-2.24h0.118v1.767h3.334v-8.768c0-4.053-3.064-6.32-7.032-6.32zM134.806 21.782c-1.129 0-2.703-0.553-2.703-1.936 0-1.769 1.962-2.448 3.661-2.448 1.52 0 2.233 0.331 3.156 0.768-0.271 2.117-2.115 3.616-4.114 3.616zM154.403 9.757l-3.969 9.909h-0.118l-4.103-9.909h-3.723l6.164 13.847-3.517 7.705h3.607l9.498-21.552h-3.84zM123.282 24.381h3.462v-22.857h-3.462v22.857z"></path>
</symbol>
<symbol id="icon-get" viewBox="0 0 192 32">
<path d="M30.413 17.17c0 4.008-1.215 7.218-3.608 9.612-2.752 2.838-6.335 4.266-10.727 4.266-4.197 0-7.781-1.452-10.721-4.314-2.946-2.904-4.416-6.468-4.416-10.734s1.47-7.83 4.416-10.71c2.94-2.886 6.524-4.338 10.721-4.338 2.089 0 4.082 0.426 5.983 1.218 1.895 0.798 3.438 1.878 4.556 3.21l-2.539 2.532c-1.95-2.274-4.604-3.396-8-3.396-3.061 0-5.716 1.056-7.969 3.186-2.229 2.136-3.347 4.902-3.347 8.298s1.118 6.186 3.347 8.322c2.253 2.106 4.908 3.186 7.969 3.186 3.25 0 5.983-1.080 8.139-3.21 1.421-1.41 2.229-3.354 2.442-5.838h-10.581v-3.468h14.116c0.17 0.75 0.219 1.476 0.219 2.178z"></path>
<path d="M52.806 5.146h-13.26v9.12h11.954v3.468h-11.954v9.12h13.26v3.534h-17.013v-28.776h17.013v3.534z"></path>
<path d="M68.614 30.388h-3.754v-25.242h-8.133v-3.534h20.026v3.534h-8.139v25.242z"></path>
<path d="M91.246 30.388v-28.776h3.748v28.776h-3.748z"></path>
<path d="M111.606 30.388h-3.723v-25.242h-8.164v-3.534h20.050v3.534h-8.164v25.242z"></path>
<path d="M157.683 26.686c-2.873 2.91-6.432 4.362-10.678 4.362-4.27 0-7.83-1.452-10.703-4.362-2.867-2.904-4.294-6.468-4.294-10.686s1.427-7.782 4.294-10.686c2.873-2.91 6.433-4.362 10.703-4.362 4.221 0 7.781 1.452 10.654 4.386 2.891 2.928 4.318 6.468 4.318 10.662 0 4.218-1.427 7.782-4.294 10.686zM139.078 24.274c2.162 2.154 4.792 3.234 7.927 3.234 3.11 0 5.764-1.080 7.902-3.234 2.156-2.154 3.25-4.92 3.25-8.274s-1.094-6.12-3.25-8.274c-2.138-2.154-4.792-3.234-7.902-3.234-3.134 0-5.764 1.080-7.927 3.234-2.156 2.154-3.25 4.92-3.25 8.274s1.093 6.12 3.25 8.274z"></path>
<path d="M167.242 30.388v-28.776h4.556l14.165 22.38h0.164l-0.164-5.532v-16.848h3.748v28.776h-3.912l-14.833-23.484h-0.164l0.164 5.556v17.928h-3.724z"></path>
</symbol>
<symbol id="icon-menu" viewBox="0 0 36 32">
<path d="M1.199 4.002c0-0.637 0.253-1.247 0.703-1.697s1.061-0.703 1.697-0.703h28.8c0.637 0 1.247 0.253 1.697 0.703s0.703 1.061 0.703 1.697-0.253 1.247-0.703 1.697c-0.45 0.45-1.060 0.703-1.697 0.703h-28.8c-0.637 0-1.247-0.253-1.697-0.703s-0.703-1.061-0.703-1.697z"></path>
<path d="M1.199 16.002c0-0.637 0.253-1.247 0.703-1.697s1.061-0.703 1.697-0.703h28.8c0.637 0 1.247 0.253 1.697 0.703s0.703 1.061 0.703 1.697-0.253 1.247-0.703 1.697c-0.45 0.45-1.060 0.703-1.697 0.703h-28.8c-0.637 0-1.247-0.253-1.697-0.703s-0.703-1.061-0.703-1.697z"></path>
<path d="M1.199 28.002c0-0.637 0.253-1.247 0.703-1.697s1.061-0.703 1.697-0.703h28.8c0.637 0 1.247 0.253 1.697 0.703s0.703 1.060 0.703 1.697c0 0.636-0.253 1.247-0.703 1.697s-1.060 0.703-1.697 0.703h-28.8c-0.637 0-1.247-0.253-1.697-0.703s-0.703-1.061-0.703-1.697z"></path>
</symbol>
</defs>
</svg>
